<svg width="128" height="128" viewBox="0 0 128 128" fill="none" xmlns="http://www.w3.org/2000/svg">
  <rect width="128" height="128" rx="32" fill="#FFF3EE"/>
  <path d="M36 78C36 55.9086 53.9086 38 76 38H80C66.7452 45.8222 58 59.9351 58 76C58 85.1222 60.8224 93.5852 65.6409 100.564C48.7439 95.8792 36 88.4745 36 78Z" fill="#F6C4B4"/>
  <path d="M80 32C95.464 32 108 44.536 108 60C108 86.5 87 98 63 98C67.6667 94.6667 72 87.2 72 78C72 63.5 83.5 59.5 83.5 49.5C83.5 42.9 82.3333 37.0667 80 32Z" fill="#1D3340"/>
  <path d="M48 42C55.732 42 62 48.268 62 56V60H68C75.732 60 82 66.268 82 74C82 81.732 75.732 88 68 88H48C40.268 88 34 81.732 34 74V56C34 48.268 40.268 42 48 42Z" fill="#FFFFFF"/>
  <path d="M48 42C55.732 42 62 48.268 62 56V58H48C39.1634 58 32 65.1634 32 74C32 81.2987 36.8887 87.456 43.5789 89.3791C38.0323 87.6288 34 82.4433 34 76.5V56C34 48.268 40.268 42 48 42Z" fill="#FDE1D6"/>
  <path d="M47 59C47 56.7909 48.7909 55 51 55H65C67.2091 55 69 56.7909 69 59C69 61.2091 67.2091 63 65 63H51C48.7909 63 47 61.2091 47 59Z" fill="#1D3340"/>
  <path d="M47 70C47 67.7909 48.7909 66 51 66H59C61.2091 66 63 67.7909 63 70C63 72.2091 61.2091 74 59 74H51C48.7909 74 47 72.2091 47 70Z" fill="#1D3340"/>
  <circle cx="91" cy="40" r="9" fill="#E8826A"/>
  <path d="M91 34V46" stroke="#FFF3EE" stroke-width="3" stroke-linecap="round"/>
  <path d="M85 40H97" stroke="#FFF3EE" stroke-width="3" stroke-linecap="round"/>
</svg>
